<svg id="Layer_1" data-name="Layer 1" xmlns="http://www.w3.org/2000/svg" viewBox="0 0 240 60"><defs><style>.cls-1{fill:#ce2c50;}.cls-2{fill:#fff;}</style></defs><rect class="cls-1" width="240" height="60"/><polygon class="cls-2" points="77.62 32.27 84.83 32.27 84.83 27.57 77.62 27.57 77.62 23.35 87.06 23.35 87.06 18.51 72.05 18.51 72.05 41.5 87.2 41.5 87.2 36.63 77.62 36.63 77.62 32.27"/><path class="cls-2" d="M98.69,18.51H91.38v23h7.31c5.85,0,10-3.81,10-9.26v-4.5C108.65,22.32,104.54,18.51,98.69,18.51Zm4.39,13.39a4.52,4.52,0,0,1-4.77,4.73H97V23.35h1.36a4.55,4.55,0,0,1,4.77,4.73Z"/><polygon class="cls-2" points="122.54 18.51 117.11 26.3 117.11 18.51 111.54 18.51 111.54 41.5 117.11 41.5 117.11 34.36 118.19 32.85 122.43 41.5 128.42 41.5 121.42 28.39 128.53 18.51 122.54 18.51"/><polygon class="cls-2" points="142.45 23.36 146.84 23.36 146.84 18.52 132.5 18.52 132.5 23.36 136.88 23.36 136.88 36.63 132.15 36.63 132.15 36.63 132.15 41.5 147.19 41.5 147.19 36.63 142.45 36.63 142.45 23.36"/><polygon class="cls-2" points="150.81 23.35 157.04 23.35 157.04 41.5 162.62 41.5 162.62 23.35 168.85 23.35 168.85 18.51 150.81 18.51 150.81 23.35"/><polygon class="cls-2" points="178.42 36.63 178.42 32.27 185.63 32.27 185.63 27.57 178.42 27.57 178.42 23.35 187.85 23.35 187.85 18.51 172.85 18.51 172.85 41.5 188 41.5 188 36.63 178.42 36.63"/><path id="Path_20" data-name="Path 20" class="cls-2" d="M63,41.49l-4.12-8.35H57.62v8.35H52v-23h8.74c4.84,0,8.21,3,8.21,7.3a7,7,0,0,1-4.74,6.76L69,41.49ZM57.62,28.27h2.77a2.5,2.5,0,1,0,.94-4.91,2.66,2.66,0,0,0-.69,0h-3Z"/></svg>