<?xml version="1.0" encoding="UTF-8"?>
<svg id="Layer_1" data-name="Layer 1" xmlns="http://www.w3.org/2000/svg" viewBox="0 0 502.28 620.23">
  <defs>
    <style>
      .cls-1 {
        fill: #fff;
      }
    </style>
  </defs>
  <path class="cls-1" d="m484.31,128.8L269.6,4.8c-10.25-6.17-23.6-6.41-35.74-.63l-.54.26L18,128.79C6.9,135.13,0,147,0,159.77v424.18c-.23,12.68,6.52,24.64,17.64,31.24,11.19,6.64,24.59,6.73,35.83.24l197.66-114.15,197.66,114.15c5.55,3.21,11.63,4.81,17.71,4.81s12.46-1.68,18.12-5.04c11.12-6.6,17.87-18.55,17.64-31.24V159.77c0-12.76-6.88-24.62-17.96-30.97ZM179.82,460.08l-108.5,62.66v-125.32l108.5,62.66Zm251.13-51v113.66L71.33,315.05v-113.66l359.62,207.69Zm0-228.72v146.35L124.43,149.69l126.7-73.17,179.81,103.85Z"/>
</svg>