<?xml version="1.0" encoding="UTF-8"?>
<svg id="Layer_1" data-name="Layer 1" xmlns="http://www.w3.org/2000/svg" xmlns:xlink="http://www.w3.org/1999/xlink" viewBox="0 0 47.09 37.56">
  <defs>
    <style>
      .cls-1 {
        fill: url(#linear-gradient);
      }

      .cls-2 {
        fill: url(#linear-gradient-3);
      }

      .cls-3 {
        fill: url(#linear-gradient-4);
      }

      .cls-4 {
        fill: url(#linear-gradient-2);
      }
    </style>
    <linearGradient id="linear-gradient" x1="291.08" y1="-328.89" x2="230.97" y2="-359.51" gradientTransform="translate(-247.5 -331.54) scale(1 -1)" gradientUnits="userSpaceOnUse">
      <stop offset="0" stop-color="aqua"/>
      <stop offset=".34" stop-color="#006de6"/>
      <stop offset="1" stop-color="#2200c9"/>
    </linearGradient>
    <linearGradient id="linear-gradient-2" x1="298.13" y1="-341.34" x2="238.02" y2="-371.97" xlink:href="#linear-gradient"/>
    <linearGradient id="linear-gradient-3" x1="303.01" y1="-350.93" x2="242.9" y2="-381.56" xlink:href="#linear-gradient"/>
    <linearGradient id="linear-gradient-4" x1="296.39" y1="-339.3" x2="236.28" y2="-369.93" xlink:href="#linear-gradient"/>
  </defs>
  <path class="cls-1" d="m1.52,37.56c-.84,0-1.52-.68-1.52-1.52V1.52C0,.68.68,0,1.52,0s1.52.68,1.52,1.52v34.53c0,.84-.68,1.52-1.52,1.52h0Z"/>
  <path class="cls-4" d="m21.88,37.56c-.39,0-.78-.15-1.07-.44-.59-.59-.59-1.55,0-2.14l7.3-7.31c1.77-1.77,1.77-4.66,0-6.43l-7.3-7.31c-.59-.59-.59-1.55,0-2.14.59-.59,1.55-.59,2.14,0l7.3,7.31c2.95,2.95,2.95,7.76,0,10.72l-7.3,7.31c-.3.3-.68.44-1.07.44Z"/>
  <path class="cls-2" d="m45.58,37.56c-.39,0-.78-.15-1.07-.44l-7.3-7.31c-2.95-2.95-2.95-7.76,0-10.72l7.3-7.31c.59-.59,1.55-.59,2.14,0,.59.59.59,1.55,0,2.14l-7.3,7.31c-1.77,1.77-1.77,4.66,0,6.43l7.3,7.31c.59.59.59,1.55,0,2.14-.3.3-.68.44-1.07.44Z"/>
  <path class="cls-3" d="m16.14,37.56c-.39,0-.78-.15-1.07-.44l-7.3-7.31c-2.95-2.95-2.95-7.76,0-10.72l7.3-7.31c.59-.59,1.55-.59,2.14,0,.59.59.59,1.55,0,2.14l-7.3,7.31c-1.77,1.77-1.77,4.66,0,6.43l7.3,7.31c.59.59.59,1.55,0,2.14-.3.3-.68.44-1.07.44Z"/>
</svg>