<?xml version="1.0" encoding="UTF-8"?>
<svg id="katman_1" data-name="katman 1" xmlns="http://www.w3.org/2000/svg" viewBox="0 0 617.3 272.21">
  <defs>
    <style>
      .cls-1 {
        fill: #0032a0;
      }
    </style>
  </defs>
  <path class="cls-1" d="m34.8,60.11l-14.1-23.2v36.9H0V1.21h18.6l20.1,33.5L58.8,1.21h18.6v72.6h-20.6v-36.9l-14.1,23.2h-7.9ZM113.1,1.31h19.8l27.4,72.6h-21.1l-4.8-13.4h-22.6l-4.8,13.4h-21.2L113.1,1.31Zm15.8,42l-5.9-18.2-5.9,18.2h11.8Zm39.7,30.5V1.21h32.3c3.6-.1,7.2.5,10.6,1.8,3,1.1,5.8,2.8,8.2,5,2.3,2.2,4.1,4.8,5.3,7.8,1.3,3.2,1.9,6.6,1.9,10,0,2-.2,4-.7,6s-1.2,3.9-2.2,5.7c-1,1.7-2.1,3.2-3.5,4.7-1.4,1.4-2.9,2.7-4.5,3.7l12.3,28.1h-22.5l-9.1-23.8h-7.1v23.7h-21v-.1Zm29-40.8c1.1,0,2.3-.2,3.4-.5.9-.3,1.8-.7,2.5-1.4.7-.6,1.2-1.4,1.5-2.2.3-1,.5-2,.5-3s-.2-2-.5-2.9-.8-1.6-1.5-2.3c-.7-.6-1.5-1.1-2.3-1.3-1.1-.3-2.2-.5-3.3-.4h-8.3v14.1h8v-.1Zm108,22.9c-1.5,2.9-3.5,5.6-5.7,7.9-2.2,2.4-4.8,4.4-7.6,6.1-2.8,1.7-5.9,3-9,3.8-3.2.9-6.5,1.4-9.9,1.4-5.2.1-10.4-.9-15.3-3-4.4-1.9-8.4-4.6-11.8-8.1-3.3-3.4-5.9-7.5-7.7-12-1.8-4.6-2.7-9.6-2.7-14.6s.9-9.9,2.6-14.5c1.7-4.5,4.3-8.5,7.6-11.9,3.4-3.5,7.5-6.2,12-8C263.2.91,268.6-.09,274.1,0c3.2,0,6.3.4,9.4,1.1,3,.7,6,1.9,8.7,3.5s5.2,3.6,7.4,6c2.3,2.6,4.3,5.5,5.8,8.7l-15.8,11.8c-.7-1.8-1.7-3.4-2.9-4.8-1.2-1.3-2.5-2.5-4-3.5-1.4-.9-2.9-1.6-4.5-2.1-1.4-.4-2.9-.7-4.4-.7-2.4,0-4.8.4-7,1.4-1.9.8-3.7,2.1-5.1,3.6-1.4,1.6-2.5,3.5-3.2,5.6-.7,2.2-1.1,4.5-1.1,6.9s.4,4.7,1.1,7c.7,2,1.8,3.9,3.2,5.5,1.4,1.6,3,2.9,4.9,3.7,2,.9,4.1,1.4,6.3,1.3,3.1,0,6.2-.8,8.9-2.5,3.2-2.2,5.8-5.1,7.6-8.5l16.2,11.9ZM348.1,0c5.3-.1,10.6,1,15.5,3,4.5,1.9,8.5,4.6,11.9,8,3.3,3.4,5.9,7.4,7.7,11.9,1.8,4.6,2.7,9.6,2.6,14.5,0,5-.9,9.9-2.7,14.6-1.7,4.5-4.4,8.5-7.7,11.9-3.4,3.4-7.5,6.2-12,8-4.9,2-10.2,3.1-15.5,3-5.3.1-10.6-.9-15.5-3-4.5-1.9-8.5-4.6-11.9-8-3.3-3.4-5.9-7.5-7.7-11.9-1.8-4.6-2.7-9.6-2.7-14.6s.9-10,2.7-14.6c1.7-4.4,4.3-8.5,7.7-11.9,3.4-3.4,7.5-6.1,12-8C337.5,1.01,342.8,0,348.1,0Zm0,19.5c-2.4,0-4.8.4-7,1.4-2,.9-3.7,2.2-5.2,3.8-1.4,1.7-2.5,3.6-3.2,5.7-1.5,4.6-1.5,9.5,0,14,.7,2.1,1.8,4,3.2,5.7,1.4,1.6,3.2,2.9,5.2,3.8,2.2.9,4.6,1.4,7,1.4s4.8-.5,6.9-1.4c2-.9,3.7-2.2,5.2-3.8,1.4-1.7,2.5-3.6,3.2-5.7,1.4-4.6,1.4-9.5,0-14-.7-2.1-1.8-4-3.2-5.7-1.4-1.6-3.2-3-5.2-3.8-2.1-.9-4.5-1.4-6.9-1.4ZM20.7,172.21H0v-72.5h28.9c3.6,0,7.2.6,10.6,1.9,3.1,1.2,6,3.1,8.4,5.4s4.2,5.1,5.5,8.2c2.6,6.8,2.6,14.3,0,21.1-1.2,3.1-3.1,5.9-5.5,8.2-2.4,2.3-5.3,4.2-8.4,5.4-3.4,1.3-7,2-10.6,1.9h-8.2v20.4Zm5.5-38.4c1.1,0,2.1-.2,3.1-.6.9-.4,1.7-1,2.5-1.7.7-.7,1.2-1.6,1.6-2.5.4-1,.6-2.1.6-3.2s-.2-2.2-.6-3.2c-.3-.9-.9-1.8-1.6-2.5s-1.5-1.3-2.5-1.7c-1-.4-2-.6-3.1-.6h-5.5v16.2l5.5-.2Zm73.7-35.3c5.3-.1,10.6.9,15.5,3,4.5,1.9,8.5,4.6,12,8,3.3,3.4,5.9,7.4,7.7,11.9,1.8,4.7,2.7,9.6,2.7,14.6s-.9,9.9-2.8,14.5c-1.7,4.5-4.4,8.5-7.7,12-3.4,3.5-7.5,6.2-11.9,8-9.9,4-21,4-31,0-4.4-1.9-8.5-4.6-11.9-8-3.3-3.4-5.9-7.5-7.7-12-3.6-9.4-3.6-19.8,0-29.2,1.7-4.4,4.3-8.5,7.7-11.9s7.5-6.2,11.9-8c4.9-2,10.2-3,15.5-2.9Zm0,19.5c-2.4,0-4.7.4-6.9,1.4-2,.9-3.7,2.2-5.2,3.8-1.4,1.7-2.5,3.6-3.2,5.7-1.4,4.6-1.4,9.5,0,14.1.7,2.1,1.8,4,3.2,5.7,1.4,1.6,3.2,2.9,5.2,3.8,2.2.9,4.6,1.4,6.9,1.4s4.8-.5,7-1.4c2-.9,3.7-2.2,5.2-3.8,1.4-1.7,2.5-3.6,3.2-5.7,1.5-4.6,1.5-9.5,0-14.1-.7-2.1-1.8-4-3.2-5.7-1.4-1.6-3.2-2.9-5.2-3.8-2.2-1-4.6-1.4-7-1.4Zm48-18.3h20.9v54h26.4v18.5h-47.3v-72.5h0Zm89.3-1.2c5.3-.1,10.6.9,15.5,3,4.5,1.9,8.5,4.6,12,8,3.3,3.4,5.9,7.4,7.7,11.9,1.8,4.7,2.7,9.6,2.7,14.6s-.9,9.9-2.8,14.5c-1.7,4.5-4.4,8.5-7.7,12-3.4,3.5-7.5,6.2-12,8-9.9,4-21,4-31,0-4.5-1.9-8.5-4.6-11.9-8-3.3-3.4-5.9-7.5-7.7-12-3.6-9.4-3.6-19.8,0-29.2,1.7-4.4,4.3-8.5,7.7-11.9,3.4-3.4,7.5-6.2,12-8,4.9-2,10.2-3,15.5-2.9Zm0,19.5c-2.4,0-4.8.4-7,1.4-2,.9-3.7,2.2-5.1,3.8-1.4,1.7-2.5,3.6-3.2,5.7-1.4,4.6-1.4,9.5,0,14.1.7,2.1,1.8,4,3.2,5.7,1.4,1.6,3.2,2.9,5.1,3.8,2.2.9,4.6,1.4,7,1.4s4.8-.5,7-1.4c2-.9,3.8-2.2,5.2-3.8,1.4-1.7,2.5-3.6,3.2-5.7,1.5-4.6,1.5-9.5,0-14.1-.7-2.1-1.8-4-3.2-5.7-1.4-1.6-3.2-2.9-5.1-3.8-2.3-1-4.7-1.4-7.1-1.4ZM58.8,198.11v72.6h-8.9l-39.8-54.5v54.5H0v-72.6h9l39.8,54.4v-54.4h10Zm17.9,0h44.6v9.3h-34.6v22.2h28.7v9.3h-28.6v22.6h35.5v9.4h-45.6v-72.8Zm78.9,9.3h-21.6v-9.3h53.2v9.3h-21.6v63.3h-10.1v-63.3h.1Zm129.4-9.3l-18.9,58.7-18.9-58.7h-11.2l5.4,16.1-13.6,42.6-18.9-58.7h-11.2l24.4,72.6h11.1l13.6-40.7,13.7,40.7h11.3l24.5-72.6h-11.3Zm53.1-1.2c5-.1,9.9.9,14.5,2.9,4.4,1.8,8.4,4.5,11.8,7.9s6.1,7.4,7.9,11.9c3.8,9.6,3.8,20.3,0,29.9-1.8,4.5-4.5,8.5-7.9,11.9-7,6.9-16.5,10.8-26.3,10.8s-19.3-3.9-26.3-10.8c-3.4-3.4-6.1-7.4-7.9-11.9-3.8-9.6-3.8-20.3,0-29.9,1.8-4.5,4.5-8.5,7.9-11.9s7.4-6,11.8-7.9c4.6-2,9.5-2.9,14.5-2.9Zm0,10c-5.2,0-10.4,1.6-14.7,4.5-4.4,2.9-7.8,7.1-9.8,12-2.8,7.1-2.8,14.9,0,22,1.3,3.3,3.3,6.2,5.8,8.7,5,5,11.8,7.9,18.8,7.9s13.8-2.8,18.8-7.9c2.5-2.5,4.4-5.5,5.7-8.7,2.8-7.1,2.8-14.9,0-22-2-4.9-5.4-9.2-9.8-12.1-4.4-2.9-9.6-4.5-14.8-4.4h0Zm50.4,63.8v-72.6h28.8c3,0,6,.5,8.8,1.6,2.7,1,5.1,2.6,7.1,4.5,2.1,2,3.7,4.3,4.8,7,2.1,5.2,2.4,10.9.7,16.2-.7,2.1-1.8,4.1-3.2,5.9s-3.1,3.3-4.9,4.5c-1.9,1.3-4,2.4-6.1,3.1l14.8,29.7h-11.5l-14-28.5h-15.3v28.8l-10-.2Zm27.7-37.4c1.7,0,3.4-.3,4.9-.9s3-1.4,4.2-2.5c1.2-1.2,2.2-2.6,2.9-4.2.7-1.8,1.1-3.7,1.1-5.6,0-1.8-.3-3.6-1.1-5.2-.7-1.5-1.7-2.9-2.9-4s-2.6-1.9-4.2-2.5c-1.6-.6-3.3-.9-4.9-.9h-17.7v25.7l17.7.1Zm39.8,37.4v-72.6h10.1v72.6h-10.1Zm25.1-38.2l28.4-34.4h-12.3l-28.9,34.9,33,37.6h13.2l-33.4-38.1Zm-65-158.7h201.1V1.21h-201.1v72.6Zm-110.9,98.4h312v-72.5h-312v72.5h0Zm234.6,98.4h77.5v-72.5h-77.6l.1,72.5Z"/>
</svg>