<svg id="Layer_1" data-name="Layer 1" xmlns="http://www.w3.org/2000/svg" viewBox="0 0 161.48 38.99"><path d="M18.18.84a2.25,2.25,0,0,1,2.49,0,54.71,54.71,0,0,1,5.5,4s.47.33.48-.23a9.2,9.2,0,0,1,.13-2.16,1,1,0,0,1,.92-.63s2.15.11,3.53.29a1.33,1.33,0,0,1,1.15,1.19s.88,5.88,1.08,8a6.9,6.9,0,0,0,1.73,2.9s3.18,4.45,3.55,5.3c0,0,.73,1.54-.85,1.75,0,0-2.9.29-3.18.35a.72.72,0,0,0-.63.79s-.16,10.23-.9,15.14c0,0-.2,1.95-1.27,1.91,0,0-3-.1-3.67-.08,0,0-.3,0-.26-.4,0,0,1.52-16,.49-24,0,0,0-1-.84-1.27,0,0-.72-.29-1.41.63a25.25,25.25,0,0,0-4.71,14.4,10.09,10.09,0,0,0,.3,3.17s.24.45,1.47.55l1.56.21s.29,0,.26.38c0,0-.35,4.68-.45,5.51a1.75,1.75,0,0,1-.12.55s-.05.16-.54.14c0,0-6.88,0-7.66,0,0,0-.32,0-.39-.17s-.48-6-.47-6.87a.43.43,0,0,1,.24-.41,4.13,4.13,0,0,0,1.91-3,17,17,0,0,0,0-2.67s.25-9,.32-10.41c0,0,.05-.49-.59-.58a.6.6,0,0,0-.45.07.59.59,0,0,0-.26.37v0c0,.05-.44,5.91-.36,8.25,0,0,.15,1.53-.91,1.56,0,0-1,.16-1.08-1.12,0,0,.08-5.75.33-8.6a.64.64,0,0,0-1.27-.12,0,0,0,0,0,0,0S12.94,21.05,13,24c0,0,.13,1.41-1,1.35,0,0-.94.11-1-1.14,0,0,.25-7.88.32-8.49a.63.63,0,0,0-.57-.59h-.06a.64.64,0,0,0-.68.52v.06s-.42,9.42-.36,12.19c0,0,0,2.84,2.06,4,0,0,.31.18.32.45,0,0,.24,5,.45,6.61,0,0,.08.39-.27.39L7,39.45a1.08,1.08,0,0,1-1.08-1,116.71,116.71,0,0,1-1-16,.81.81,0,0,0-.64-.87s-2.7-.25-3.36-.42a1.12,1.12,0,0,1-.8-1.36,1.48,1.48,0,0,1,.12-.29A54.4,54.4,0,0,1,18.18.84Zm37.25,14.8H50.21c-1.69,0-1.69,0-2,2s-.35,2.05,1.2,2.05h3.1L50.71,29.75c-.43,2.25-1.41,3.81-4.45,4.72-.77.21-1,.49-1,.84a4.18,4.18,0,0,0,.49,1.62c.49,1.2.78,1.42,1.2,1.42a8.24,8.24,0,0,0,1.48-.29c4.3-1.41,6.06-4.72,6.77-8.67l2-11.35c.35-2.4.35-2.4-1.76-2.4m17.7,0c-2.11,0-2.11,0-2.4,1.76l-1.52,9.17c-.43,2.68-1.13,4.23-3.74,4.23s-3.46-1.55-3-3.95l1.48-8.74c.42-2.47.35-2.47-1.84-2.47s-2.18,0-2.47,1.69L58.06,26.5C57.15,31.72,60.39,35,65,35c5.14,0,7.75-2.33,8.59-7.82L75.13,18c.35-2.4.21-2.4-2-2.4m9.63,15c1.69-.07,2.61-.84,2.61-1.62,0-1-1.2-1.34-2.82-1.83-3.18-1-6.07-2.12-6.07-5.5,0-4,3.32-6.21,7.48-6.21q2.51,0,5,.21c1.12.14,1.41.49,1,2.26s-.77,1.9-1.76,1.83c-1.2-.07-2.75-.21-4.58-.21-2.12,0-2.75.78-2.75,1.48,0,.92.84,1.41,2.82,2,3.66,1.05,6.06,2.54,6.06,5.71,0,3.74-2.75,5.93-7.19,6.07a36.45,36.45,0,0,1-6.35-.35c-1.42-.22-1.49-.22-1.13-2.26.35-1.83.35-2,1.69-1.83a37.75,37.75,0,0,0,5.92.28m23.07-15H93.93c-1.69,0-1.69,0-2,2.05s-.28,2,1.2,2H97l-2.2,12.65c-.42,2.46-.35,2.46,1.84,2.46s2.11,0,2.4-1.75l2.25-13.34H105c1.69,0,1.69,0,2-2s.35-2.05-1.2-2.05m21,4c1.69,0,1.69,0,2-2s.35-2.05-1.2-2.05h-8.53c-3,0-3,0-3.46,3l-2.18,12.76c-.57,3.32-.5,3.32,2.54,3.32h8.32c1.77,0,1.69,0,2-2s.35-2-1.2-2H118l.57-3.67h6c1.63,0,1.63,0,1.91-1.91s.28-2-1.91-2h-5.29l.57-3.46Zm9,6.75,2.75-6.06c.22-.5.22-.5.57-.5s.35,0,.42.57l.85,6ZM143.35,18c-.42-2.4-.42-2.4-3.81-2.4-3.18,0-3.11,0-4.09,2l-7.13,14.88c-1.06,2.12-.84,2.33,1.76,2.33,2,0,2,0,2.9-1.91l1.12-2.54H141l.35,2.54c.28,1.91.35,1.91,2.4,1.91,2.33,0,2.54-.14,2.11-2.47L143.35,18Zm16.87-2.33h-12c-1.7,0-1.7,0-2,2.05s-.28,2,1.2,2h3.88l-2.19,12.65c-.42,2.46-.35,2.46,1.84,2.46,2,0,2.11,0,2.39-1.75l2.26-13.34h3.74c1.69,0,1.69,0,2-2s.43-2.05-1.12-2.05" transform="translate(-0.07 -0.46)" style="fill:#f36d00"/></svg>