<?xml version="1.0" encoding="UTF-8"?>
<svg id="Layer_1" data-name="Layer 1" xmlns="http://www.w3.org/2000/svg" viewBox="0 0 142.01 176.72">
    <path style="fill: white" d="M138.19,37.53L74.98,1.02c-2.18-1.33-5.1-1.36-7.8-.07L3.83,37.52C1.47,38.87,0,41.4,0,44.11v124.86c-.06,2.7,1.38,5.26,3.76,6.68,1.2.71,2.53,1.07,3.85,1.07s2.58-.34,3.75-1.02l59.64-34.44,59.64,34.44c2.39,1.38,5.23,1.36,7.6-.05,2.39-1.42,3.83-3.97,3.76-6.64V44.11c0-2.71-1.46-5.24-3.82-6.58ZM55.84,132.51l-40.68,23.49v-46.99l40.68,23.49ZM126.85,115.81v40.19L15.16,91.5v-40.19l111.68,64.5ZM126.85,48.49v49.81L27.88,41.14l43.12-24.9,55.84,32.25Z"/>
</svg>