<?xml version="1.0" encoding="UTF-8"?><svg id="Layer_1" xmlns="http://www.w3.org/2000/svg" viewBox="0 0 554.77 97.9"><defs><style>.cls-1{fill:#f05145;}</style></defs><path class="cls-1" d="M0,95.43V2.47h24.78v12.46C29.83,5.77,39.64.27,50.08.73c10.73-.33,20.73,5.44,25.82,14.89C85.61,5.41,93.06.73,104.67.73c20.97,0,32.75,11.77,32.75,33.42v61.28h-26.69v-50.37c0-12.98-2.77-18.87-12.99-18.87s-15.94,6.4-15.94,18.87v50.37h-26.86v-50.37c0-12.98-2.77-18.87-13-18.87s-15.94,6.4-15.94,18.87v50.37H0ZM169.03,14.58c19.1-19.28,50.21-19.43,69.49-.33,9.12,9.03,14.34,21.28,14.55,34.12.36,13.1-4.72,25.76-14.03,34.97-9.28,9.51-22.07,14.77-35.36,14.54-13.33.37-26.16-5.07-35.18-14.89-8.9-9.18-13.82-21.5-13.69-34.28-.05-12.83,5.07-25.13,14.21-34.13h0ZM203.86,71.89c9.38.4,18.06-4.95,21.93-13.5,5.22-11.55.09-25.13-11.46-30.35-1.51-.68-3.09-1.2-4.7-1.54-9.18-1.95-18.63,1.87-23.87,9.66-2.56,3.81-3.92,8.29-3.9,12.88-.24,12.38,9.61,22.61,21.99,22.85,0,0,0,0,.01,0ZM270.48,95.43V2.47h25.99l-.34,12.46c5.52-9.37,15.83-14.86,26.69-14.19,19.23,0,31.71,12.12,31.71,33.41v61.28h-27.38v-50.37c0-12.98-2.77-18.87-13.34-18.87s-16.46,6.4-16.46,18.87v50.37h-26.86ZM470.71,14.57c13.91-14.06,34.9-18.4,53.25-11.03,18.35,7.37,30.49,25.03,30.79,44.81.36,13.1-4.72,25.76-14.03,34.97-9.28,9.5-22.07,14.76-35.36,14.54-13.33.37-26.16-5.07-35.18-14.89-8.9-9.18-13.82-21.49-13.69-34.28-.05-12.82,5.07-25.13,14.21-34.13h0ZM505.54,71.88c9.38.4,18.06-4.95,21.93-13.5,3.86-8.55,2.12-18.6-4.39-25.35-6.51-6.77-16.49-8.89-25.19-5.36-8.7,3.53-14.38,11.99-14.35,21.37-.23,12.39,9.62,22.62,22,22.85,0,0,0,0,0,0ZM374.48,95.43v-19.39l38.3-49.53h-38.3V2.46h69.15v21.99l-33.8,46.92h34.49v24.05h-69.84Z"/></svg>