<?xml version="1.0" encoding="UTF-8"?><svg id="Layer_1" xmlns="http://www.w3.org/2000/svg" viewBox="0 0 331.66 67"><defs><style>.cls-1{fill:#0d2431;}</style></defs><path class="cls-1" d="M70.93,8.04V0H0v9.86h53.7L0,58.96v8.04h72.45v-9.86H17.23L70.93,8.04h0ZM304.57,0h-45.27v67h11.49v-23.16h33.79c16.27,0,27.09-7.85,27.09-21.92,0-14.07-10.81-21.92-27.09-21.92ZM303.61,33.98h-32.83V10.05h32.83c9.86,0,16.27,3.35,16.27,11.97s-6.41,11.97-16.27,11.97h0ZM222.41,0h-45.27v67h11.49v-23.17h33.79c16.27,0,27.09-7.85,27.09-21.92,0-14.07-10.82-21.91-27.1-21.91ZM221.45,33.98h-32.83V10.05h32.83c9.86,0,16.27,3.35,16.27,11.97s-6.41,11.96-16.27,11.96h0ZM158.61,50.83l-5.26-9.77L131.16,0h-12.63l-36.27,67h12.44l8.52-16.18h42.97s8.62,16.18,8.62,16.18h12.54l-8.73-16.17ZM141.12,41.06h-32.74s16.37-31.02,16.37-31.02l16.37,31.01h0Z"/></svg>